<?xml version="1.0" encoding="utf-8"?>
<!-- Svg Vector Icons : http://www.onlinewebfonts.com/icon -->
<!DOCTYPE svg PUBLIC "-//W3C//DTD SVG 1.1//EN" "http://www.w3.org/Graphics/SVG/1.1/DTD/svg11.dtd">
<svg version="1.1" xmlns="http://www.w3.org/2000/svg" xmlns:xlink="http://www.w3.org/1999/xlink" x="0px" y="0px" viewBox="0 0 256 256" enable-background="new 0 0 256 256" xml:space="preserve">
<metadata> Svg Vector Icons : http://www.onlinewebfonts.com/icon </metadata>
<g><g><g><path fill="#000000" d="M90.9,10.2c-7.2,0.5-13.5,4.4-16.7,10.4c-2.4,4.5-2.6,6.1-2.6,18.6c0,14.1-0.1,15.2-1.7,15.2h-1.2l0.1,4.7c0.1,4.5,0.2,4.7,1.3,5c1.2,0.3,1.2,0.4,1.2,3.8c0,3.6,0,3.6-1.3,3.8l-1.3,0.1l0.1,5.9l0.1,5.9l1.3,0.1c1.2,0.1,1.3,0.3,1.3,2.5c0,2.3,0,2.4-1.4,2.4h-1.4v6v6H70c1,0,1.2,0.3,1.4,2.3c0.1,1.3,0.2,30,0.2,63.9c0,56.5,0,61.9,0.8,64.5c1.9,6.8,7.6,12.2,14.6,14.1c1.5,0.4,12.8,0.6,41.4,0.6c38,0,39.3,0,41.8-1c6.9-2.6,10.9-6.7,13.4-13.8c0.6-1.7,0.7-12.9,0.7-82.2V68.9h1.4h1.4v-8.4v-8.4l-1.3-0.1l-1.3-0.1l-0.1-11.5c0-6.4-0.2-12.5-0.4-13.6c-0.8-5.3-5.5-11.6-10.6-14.2c-4.7-2.4-4.5-2.4-42.5-2.5C111.2,10,93.2,10.1,90.9,10.2z M170.6,13.5c2.1,0.9,3.8,2,6.1,4.3c2.3,2.3,3.5,3.9,4.3,6.1l1.2,2.9V128v101.3l-1.2,2.9c-1.6,4-6.4,8.8-10.4,10.4l-2.9,1.2H128H88.3l-2.8-1.1c-3.4-1.4-7.8-5.4-9.6-8.6c-0.7-1.2-1.5-3.5-1.8-5c-0.4-2-0.5-28.1-0.4-102.5l0.1-99.8L75,24c1.2-3,4.9-7.4,7.6-9.1c1-0.6,2.9-1.4,4.4-1.9c2.5-0.8,5.1-0.9,41.7-0.8l39,0.1L170.6,13.5z"/><path fill="#000000" d="M128,25.8c0,1,0.2,1.2,1.2,1.2c1,0,1.2-0.2,1.2-1.2s-0.2-1.2-1.2-1.2C128.3,24.6,128,24.9,128,25.8z"/><path fill="#000000" d="M116,33.3c0,0.6,0.3,1,1,1s1-0.3,1-1s-0.3-1-1-1S116,32.7,116,33.3z"/><path fill="#000000" d="M123.2,33.3c0,0.9,0.3,1,9.6,1c9.3,0,9.6,0,9.6-1s-0.3-1-9.6-1C123.6,32.3,123.2,32.4,123.2,33.3z"/><path fill="#000000" d="M76.6,129.3v87.3H128h51.5v-87.3V41.9H128H76.6V129.3z M177.6,129.3v84.9H128H78.5v-84.9V44.3H128h49.5V129.3z"/><path fill="#000000" d="M125.1,221c-4.7,1.7-6.9,5.2-6.6,10c0.4,5.2,4.3,8.9,9.5,8.9c3,0,4.9-0.8,7.1-3.1c4.1-4.2,3-11.8-2.3-14.8C130.5,220.6,127.3,220.2,125.1,221z M131.3,223.5c4.7,2.4,5.5,8.4,1.8,12.1c-5,5-13.7,0.3-12.6-6.6C121.4,224.3,127.1,221.3,131.3,223.5z"/></g></g></g>
</svg>