<?xml version="1.0" encoding="iso-8859-1"?>
<!-- Uploaded to: SVG Repo, www.svgrepo.com, Generator: SVG Repo Mixer Tools -->
<svg version="1.1" id="Layer_1" xmlns="http://www.w3.org/2000/svg" xmlns:xlink="http://www.w3.org/1999/xlink" 
	 viewBox="0 0 512.001 512.001" xml:space="preserve">
<path style="fill:#333E48;" d="M432.885,109.941V79.394c0-20.757-16.983-37.74-37.74-37.74h-278.29
	c-20.757,0-37.74,16.983-37.74,37.74v30.547h353.77V109.941z"/>
<rect x="41.18" y="136.21" style="fill:#0071CE;" width="429.298" height="334.128"/>
<g>
	<rect x="41.18" y="420.241" style="fill:#4BB6AA;" width="57.343" height="29.114"/>
	<rect x="439.649" y="245.213" style="fill:#4BB6AA;" width="30.827" height="29.114"/>
</g>
<path style="fill:#0055B8;" d="M132.044,159.503c0,34.229-27.748,61.979-61.979,61.979c-34.229-0.001-61.978-27.75-61.978-61.979
	v-34.189c0-16.855,13.791-30.646,30.647-30.646h93.309V159.503z"/>
<g>
	<path style="fill:#4BB6AA;" d="M132.044,94.668H256v64.835c0,34.229-27.748,61.979-61.979,61.979
		c-34.229,0-61.978-27.75-61.978-61.979V94.668z"/>
	<path style="fill:#4BB6AA;" d="M379.956,159.503c0,34.229,27.747,61.979,61.979,61.979c34.229,0,61.979-27.75,61.979-61.979
		v-34.189c0-16.855-13.791-30.646-30.647-30.646h-93.309v64.835H379.956z"/>
</g>
<path style="fill:#0055B8;" d="M379.956,94.668H256v64.835c0,34.229,27.748,61.979,61.979,61.979s61.978-27.75,61.978-61.979V94.668
	z"/>
<path style="fill:#00A8E1;" d="M245.16,470.348V289.946c0-21.34,17.46-38.8,38.8-38.8h96.668c21.34,0,38.801,17.46,38.801,38.8
	v180.401L245.16,470.348L245.16,470.348z"/>
<rect x="278.413" y="284.398" style="fill:#FFFFFF;" width="107.753" height="101.628"/>
<path style="fill:#00A8E1;" d="M41.175,251.145h109.141c21.34,0,38.8,17.46,38.8,38.8v61.175c0,21.34-17.46,38.8-38.8,38.8H41.175
	V251.145z"/>
<rect x="41.18" y="284.398" style="fill:#FFFFFF;" width="114.686" height="72.256"/>
<path style="fill:#1E252B;" d="M473.266,86.58h-32.294v-7.187c0-25.27-20.558-45.827-45.827-45.827h-278.29
	c-25.27,0-45.827,20.559-45.827,45.827v7.187H38.734C17.375,86.58,0,103.956,0,125.313v34.189c0,25.068,13.24,47.091,33.088,59.475
	v251.37c0,4.466,3.62,8.087,8.087,8.087h429.299c4.467,0,8.087-3.621,8.087-8.087V219.203c20.044-12.342,33.44-34.484,33.44-59.7
	v-34.189C512,103.956,494.625,86.58,473.266,86.58z M87.202,79.394c0-16.351,13.303-29.653,29.653-29.653h278.29
	c16.35,0,29.653,13.303,29.653,29.653v7.187H87.202V79.394z M371.869,102.755v56.748c0,29.715-24.175,53.892-53.891,53.892
	s-53.892-24.175-53.892-53.892v-56.748H371.869z M247.913,102.755v56.748c0,29.715-24.175,53.892-53.892,53.892
	s-53.891-24.175-53.891-53.892v-56.748H247.913z M16.174,159.503v-34.189c0-12.439,10.121-22.559,22.56-22.559h85.222v56.748
	c0,29.715-24.175,53.892-53.892,53.892C40.349,213.393,16.174,189.218,16.174,159.503z M155.858,364.751
	c4.467,0,8.087-3.621,8.087-8.087v-72.26c0-4.466-3.62-8.087-8.087-8.087H49.263v-17.084h101.054
	c16.936,0,30.713,13.777,30.713,30.713v61.175c0,16.936-13.777,30.713-30.713,30.713H49.263V364.75h106.595V364.751z
	 M49.263,348.577v-56.086h98.508v56.086H49.263z M411.343,462.26H253.247V289.946c0-16.936,13.777-30.713,30.713-30.713h96.668
	c16.936,0,30.714,13.778,30.714,30.713V462.26H411.343z M462.386,462.26h-34.868V289.946c0-25.854-21.034-46.887-46.888-46.887
	h-96.668c-25.854,0-46.887,21.033-46.887,46.887V462.26H49.263v-64.252h101.054c25.854,0,46.887-21.033,46.887-46.887v-61.175
	c0-25.854-21.034-46.887-46.887-46.887H49.263v-16.643c6.575,2.049,13.563,3.153,20.803,3.153c26.858,0,50.222-15.199,61.979-37.44
	c11.755,22.241,35.12,37.44,61.978,37.44s50.222-15.199,61.979-37.44c11.755,22.241,35.12,37.44,61.979,37.44
	s50.222-15.199,61.978-37.44c11.755,22.241,35.12,37.44,61.979,37.44c7.113,0,13.978-1.073,20.452-3.053V462.26H462.386z
	 M495.826,159.503c0,29.715-24.175,53.892-53.892,53.892s-53.892-24.175-53.892-53.892v-56.748h85.222
	c12.439,0,22.56,10.12,22.56,22.559v34.189H495.826z M386.173,276.317H278.418c-4.467,0-8.087,3.621-8.087,8.087v101.633
	c0,4.466,3.62,8.087,8.087,8.087h107.755c4.467,0,8.087-3.621,8.087-8.087V284.404C394.26,279.937,390.639,276.317,386.173,276.317z
	 M378.086,377.949h-91.581v-85.458h91.581V377.949z"/>
</svg>